<?xml version="1.0" encoding="UTF-8"?>
<svg version="1.1" xmlns="http://www.w3.org/2000/svg" width="512" height="512">
<path d="M0 0 C168.96 0 337.92 0 512 0 C512 168.96 512 337.92 512 512 C343.04 512 174.08 512 0 512 C0 343.04 0 174.08 0 0 Z " fill="#000000" transform="translate(0,0)"/>
<path d="M0 0 C0.97735391 -0.00172116 1.95470781 -0.00344233 2.9616785 -0.00521564 C6.17531606 -0.00951489 9.3889009 -0.00661578 12.60253906 -0.00341797 C14.8834383 -0.00456077 17.16433739 -0.00603771 19.44523621 -0.00782776 C25.50607727 -0.01082112 31.56689025 -0.00664344 37.62772751 0.00021744 C41.36608608 0.00439221 45.10444409 0.00735056 48.84280396 0.01010132 C105.89153622 0.05778089 105.89153622 0.05778089 129.17614746 0.39385986 C131.41135663 0.42562995 133.64663566 0.45284468 135.88195801 0.47528076 C138.86613008 0.50761664 141.84925535 0.55892326 144.83300781 0.61767578 C146.07198067 0.62727577 146.07198067 0.62727577 147.33598328 0.6370697 C152.1201708 0.76276143 155.46751727 1.4987029 159.61816406 4.12939453 C161.53264286 7.95835212 161.18215758 12.3044931 159.94482422 16.30810547 C159.0097247 18.57971308 157.99657983 20.79120805 156.93066406 23.00439453 C156.56344238 23.79160889 156.1962207 24.57882324 155.81787109 25.38989258 C155.08999353 26.94315704 154.35550729 28.49334539 153.61376953 30.04003906 C152.77723044 31.79558138 151.97657599 33.56816016 151.18457031 35.34423828 C148.07903698 42.11531915 145.08291573 45.49237883 138.21191406 48.73876953 C132.53215419 50.77427926 126.89935455 50.52698146 120.93066406 50.44189453 C119.62097656 50.43351562 118.31128906 50.42513672 116.96191406 50.41650391 C91.51215876 50.1803288 66.05065349 49.04873018 40.61816406 48.12939453 C40.57165207 48.71008698 40.52514008 49.29077942 40.47721863 49.8890686 C39.47199307 62.21182985 38.14757813 74.33875212 35.93066406 86.50439453 C35.66804511 87.98673858 35.40635647 89.4692477 35.14550781 90.9519043 C34.5950429 94.0729622 34.03962639 97.19307547 33.47998047 100.3125 C32.15231743 107.71885665 30.85737685 115.13097336 29.56005859 122.54269409 C29.26521273 124.22691967 28.97012768 125.91110338 28.67480469 127.59524536 C25.77846084 144.11345636 22.94595767 160.64142808 20.25732422 177.19482422 C19.86413585 179.61523051 19.46851906 182.03524562 19.06884766 184.45458984 C13.09917132 220.85392111 8.33623903 258.32703204 7.42675781 295.22314453 C7.37805542 297.00362183 7.37805542 297.00362183 7.32836914 298.82006836 C7.27362164 301.06691206 7.23678533 303.31430293 7.22241211 305.56176758 C7.04824105 313.70605831 5.42424316 319.5638733 -0.44433594 325.37939453 C-11.10147866 333.69331771 -26.81728358 335.34670055 -39.94433594 335.56689453 C-40.69400635 335.58913086 -41.44367676 335.61136719 -42.21606445 335.63427734 C-47.35868559 335.6134453 -50.33208056 334.54905202 -54.38183594 331.12939453 C-58.12611967 324.15727999 -58.53761528 317.37873906 -58.54980469 309.60205078 C-58.55399414 308.78467941 -58.55818359 307.96730804 -58.5625 307.12516785 C-58.57226404 304.48069424 -58.57229124 301.83638317 -58.56933594 299.19189453 C-58.56906403 298.2902356 -58.56879211 297.38857666 -58.56851196 296.45959473 C-58.54093223 276.62601491 -56.99928586 257.35676564 -53.80712891 237.78271484 C-53.35483516 234.96094193 -52.93107834 232.13578457 -52.51074219 229.30908203 C-48.98447073 205.93632727 -43.69509738 182.98264676 -38.08447266 160.03417969 C-37.40857566 157.2399398 -36.75225014 154.44199641 -36.10449219 151.64111328 C-33.25631279 139.34581162 -30.00185155 127.2196964 -26.38183594 115.12939453 C-26.04635742 114.00404297 -25.71087891 112.87869141 -25.36523438 111.71923828 C-18.94156871 90.28003731 -11.61055009 69.51908487 -2.38183594 49.12939453 C-29.99965785 50.00199554 -56.12263598 58.05918166 -82.26586914 66.37646484 C-92.18092399 69.49688233 -102.09722404 72.58534812 -112.56933594 72.44189453 C-113.82101563 72.43802734 -115.07269531 72.43416016 -116.36230469 72.43017578 C-119.38183594 72.12939453 -119.38183594 72.12939453 -121.38183594 70.12939453 C-122.46221415 64.72750347 -120.0925454 61.2327786 -117.27636719 56.84033203 C-96.94328754 27.74516239 -60.93046534 8.51962434 -26.38183594 1.81689453 C-17.59869569 0.53210865 -8.87115916 -0.02013473 0 0 Z " fill="#FDA954" transform="translate(236.3818359375,88.87060546875)"/>
</svg>
